# xmcd CD database file
#
# Track frame offsets:
#	150
#	13572
#	31167
#	46274
#	61373
#	78764
#	92636
#	109100
#	126650
#	144382
#	160676
#	176261
#	192226
#	208857
#	226460
#	242650
#	261605
#	277390
#	291635
#	311667
#
# Disc length: 4376 seconds
#
# Revision: 2
# Processed by: cddbd v1.5.1PL2 Copyright (c) Steve Scherf et al.
# Submitted via: CDex 1.51
#
DISCID=28111614
DTITLE=Bruno e Marrone - Bruno e Marrone
DYEAR=1900
DGENRE=Country
TTITLE0=Bruno e Marrone - A culpa e sua
TTITLE1=Bruno e Marrone - Choram as rosas
TTITLE2=Bruno e Marrone - Cuida do nosso amor
TTITLE3=Bruno e Marrone - Faz mais faz
TTITLE4=Bruno e Marrone - Meu presente e voce
TTITLE5=Bruno e Marrone - Nao tem outro jeito
TTITLE6=Bruno e Marrone - Por que choras
TTITLE7=Bruno e Marrone - Por te amar demais
TTITLE8=Bruno e Marrone - Por um gole a mais
TTITLE9=Bruno e Marrone - Quer casar comigo
TTITLE10=Bruno e Marrone - Quer pescar que nada
TTITLE11=Bruno e Marrone - Raridade
TTITLE12=Bruno e Marrone - Se nao for por amor
TTITLE13=Bruno e Marrone - Uma grande mentira
TTITLE14=Bruno e Marrone - Vai sofre pra la
TTITLE15=Misto - AudioTrack 03
TTITLE16=Bruno e Marrone - Anjo de Amor
TTITLE17=Bruno e Marrone - Apaziguar
TTITLE18=Bruno e Marrone - Bijuteria
TTITLE19=Bruno e Marrone - Cama Vazia
EXTD=
EXTT0=
EXTT1=
EXTT2=
EXTT3=
EXTT4=
EXTT5=
EXTT6=
EXTT7=
EXTT8=
EXTT9=
EXTT10=
EXTT11=
EXTT12=
EXTT13=
EXTT14=
EXTT15=
EXTT16=
EXTT17=
EXTT18=
EXTT19=
PLAYORDER=
